<?xml version="1.0" encoding="utf-8"?>
<!-- Generator: Adobe Illustrator 25.0.1, SVG Export Plug-In . SVG Version: 6.00 Build 0)  -->
<svg version="1.1" id="圖層_1" xmlns="http://www.w3.org/2000/svg" xmlns:xlink="http://www.w3.org/1999/xlink" x="0px" y="0px"
	 viewBox="0 0 30 30" style="enable-background:new 0 0 30 30;" xml:space="preserve">
<style type="text/css">
	.st0{fill:#231F20;}
</style>
<g>
	<g>
		<path class="st0" d="M23.5,4.8h-3h-11h-3C5.7,4.8,5,5.4,5,6.2v8c0,0.8,0.7,1.5,1.5,1.5h1h15h1c0.8,0,1.5-0.7,1.5-1.5v-8
			C25,5.4,24.3,4.8,23.5,4.8z M20,5.8v1.5c0,0.3-0.2,0.5-0.5,0.5h-9c-0.3,0-0.5-0.2-0.5-0.5V5.8H20z M22,12.8H8v-1h14V12.8z M8,14.8
			v-1h14v1H8z M24,14.2c0,0.3-0.2,0.5-0.5,0.5H23v-3.5c0-0.3-0.2-0.5-0.5-0.5h-15C7.2,10.8,7,11,7,11.2v3.5H6.5
			c-0.3,0-0.5-0.2-0.5-0.5v-8C6,6,6.2,5.8,6.5,5.8H9v1.5c0,0.8,0.7,1.5,1.5,1.5h9c0.8,0,1.5-0.7,1.5-1.5V5.8h2.5
			C23.8,5.8,24,6,24,6.2V14.2z"/>
		<path class="st0" d="M22.5,8.8h-1C21.2,8.8,21,9,21,9.2s0.2,0.5,0.5,0.5h1c0.3,0,0.5-0.2,0.5-0.5S22.8,8.8,22.5,8.8z"/>
	</g>
	<g>
		<path class="st0" d="M11.5,21.1c-0.2-0.4-0.3-0.7-0.4-1.1c-0.2-0.6-0.2-1.4,0.3-1.8c0.2-0.2,0.2-0.5,0.1-0.7
			c-0.2-0.2-0.5-0.2-0.7-0.1c-0.9,0.7-0.9,1.9-0.7,2.8c0.1,0.4,0.3,0.8,0.5,1.2c0.2,0.4,0.3,0.7,0.4,1.1c0.2,0.6,0.1,1.4-0.4,1.8
			c-0.2,0.2-0.3,0.5-0.1,0.7c0.1,0.1,0.2,0.2,0.4,0.2c0.1,0,0.2,0,0.3-0.1c0.9-0.7,0.9-1.9,0.7-2.8C11.8,21.9,11.6,21.5,11.5,21.1z"
			/>
		<path class="st0" d="M15.5,21.1c-0.2-0.4-0.3-0.7-0.4-1.1c-0.2-0.6-0.2-1.4,0.3-1.8c0.2-0.2,0.2-0.5,0.1-0.7
			c-0.2-0.2-0.5-0.2-0.7-0.1c-0.9,0.7-0.9,1.9-0.7,2.8c0.1,0.4,0.3,0.8,0.5,1.2c0.2,0.4,0.3,0.7,0.4,1.1c0.2,0.6,0.1,1.4-0.4,1.8
			c-0.2,0.2-0.3,0.5-0.1,0.7c0.1,0.1,0.2,0.2,0.4,0.2c0.1,0,0.2,0,0.3-0.1c0.9-0.7,0.9-1.9,0.7-2.8C15.8,21.9,15.6,21.5,15.5,21.1z"
			/>
		<path class="st0" d="M19.5,21.1c-0.2-0.4-0.3-0.7-0.4-1.1c-0.2-0.6-0.2-1.4,0.3-1.8c0.2-0.2,0.2-0.5,0.1-0.7
			c-0.2-0.2-0.5-0.2-0.7-0.1c-0.9,0.7-0.9,1.9-0.7,2.8c0.1,0.4,0.3,0.8,0.5,1.2c0.2,0.4,0.3,0.7,0.4,1.1c0.2,0.6,0.1,1.4-0.4,1.8
			c-0.2,0.2-0.3,0.5-0.1,0.7c0.1,0.1,0.2,0.2,0.4,0.2c0.1,0,0.2,0,0.3-0.1c0.9-0.7,0.9-1.9,0.7-2.8C19.8,21.9,19.6,21.5,19.5,21.1z"
			/>
	</g>
</g>
</svg>
