<?xml version="1.0" encoding="utf-8"?>
<!-- Generator: Adobe Illustrator 25.0.1, SVG Export Plug-In . SVG Version: 6.00 Build 0)  -->
<svg version="1.1" id="圖層_1" xmlns="http://www.w3.org/2000/svg" xmlns:xlink="http://www.w3.org/1999/xlink" x="0px" y="0px"
	 viewBox="0 0 30 30" style="enable-background:new 0 0 30 30;" xml:space="preserve">
<style type="text/css">
	.st0{fill:#231F20;}
</style>
<g>
	<path class="st0" d="M7.2,18.1c-0.1,0-0.2,0-0.3-0.1c-0.2-0.2-0.2-0.5-0.1-0.7c1-1.2,1.6-2.6,2.3-4.1c0.6-1.4,1.2-2.9,2.2-4.1
		c1.8-2.3,4.7-3,7.8-2.1c0.8,0.2,1.5,0.7,2,1.3c0.4,0.6,0.6,1.3,0.4,2.1c-0.1,0.7-0.6,1.3-1.2,1.7c-0.6,0.4-1.4,0.5-2.2,0.3
		c-0.4-0.1-0.7-0.2-1.1-0.4c-0.1,0-0.2,0-0.2,0c-0.9,0.7-1.9,0.8-2.6,0.3c-0.2-0.2-0.2-0.5-0.1-0.7c0.2-0.2,0.5-0.2,0.7-0.1
		c0.4,0.3,0.9,0,1.3-0.3c0.3-0.3,0.8-0.3,1.1-0.2c0.4,0.2,0.7,0.3,1,0.4c0.5,0.1,1,0,1.4-0.2c0.4-0.2,0.7-0.6,0.7-1
		c0.1-0.3,0.1-0.8-0.3-1.3c-0.3-0.4-0.8-0.8-1.5-1C16,7.1,13.6,7.7,12,9.7c-0.9,1.1-1.5,2.5-2.1,3.9c-0.6,1.5-1.3,3.1-2.4,4.4
		C7.4,18,7.3,18.1,7.2,18.1z"/>
	<path class="st0" d="M22.8,17.7c-0.6,0-3.9-0.1-5-1.9c-1.3-2.1-0.1-4.1,0-4.2c0.1-0.2,0.5-0.3,0.7-0.2c0.2,0.1,0.3,0.5,0.2,0.7
		c0,0.1-0.9,1.6,0,3.2c0.7,1.2,3.3,1.4,4.2,1.4c0,0,0,0,0,0c0.3,0,0.5,0.2,0.5,0.5c0,0.3-0.2,0.5-0.5,0.5
		C22.8,17.7,22.8,17.7,22.8,17.7z"/>
	<path class="st0" d="M20,21.3c-0.5,0-1-0.1-1.5-0.3c-0.7-0.3-1.5-0.3-2.2,0c-0.9,0.4-2,0.4-3,0c-0.7-0.3-1.5-0.3-2.2,0
		c-0.9,0.4-2,0.4-3,0l-1.3-0.6c-0.3-0.1-0.4-0.4-0.3-0.7c0.1-0.3,0.4-0.4,0.7-0.3l1.3,0.6c0.7,0.3,1.5,0.3,2.2,0c0.9-0.4,2-0.4,3,0
		c0.7,0.3,1.5,0.3,2.2,0c0.9-0.4,2-0.4,3,0c0.7,0.3,1.5,0.3,2.2,0l1.3-0.6c0.3-0.1,0.5,0,0.7,0.3c0.1,0.3,0,0.5-0.3,0.7L21.4,21
		C21,21.2,20.5,21.3,20,21.3z"/>
	<path class="st0" d="M20,23.5c-0.5,0-1-0.1-1.5-0.3c-0.7-0.3-1.5-0.3-2.2,0c-0.9,0.4-2,0.4-3,0c-0.7-0.3-1.5-0.3-2.2,0
		c-0.9,0.4-2,0.4-3,0l-1.3-0.6c-0.3-0.1-0.4-0.4-0.3-0.7c0.1-0.3,0.4-0.4,0.7-0.3l1.3,0.6c0.7,0.3,1.5,0.3,2.2,0c0.9-0.4,2-0.4,3,0
		c0.7,0.3,1.5,0.3,2.2,0c0.9-0.4,2-0.4,3,0c0.7,0.3,1.5,0.3,2.2,0l1.3-0.6c0.3-0.1,0.5,0,0.7,0.3c0.1,0.3,0,0.5-0.3,0.7l-1.3,0.6
		C21,23.3,20.5,23.5,20,23.5z"/>
</g>
</svg>
