<?xml version="1.0" encoding="utf-8"?>
<!-- Generator: Adobe Illustrator 25.0.1, SVG Export Plug-In . SVG Version: 6.00 Build 0)  -->
<svg version="1.1" id="圖層_1" xmlns="http://www.w3.org/2000/svg" xmlns:xlink="http://www.w3.org/1999/xlink" x="0px" y="0px"
	 viewBox="0 0 30 30" style="enable-background:new 0 0 30 30;" xml:space="preserve">
<style type="text/css">
	.st0{fill:#0AA7B7;}
</style>
<g>
	<path class="st0" d="M18.2,14.1H6c-0.6,0-1.2,0.4-1.3,1.1c-0.1,0.6-0.2,1.3-0.2,1.9c0,2.7,1.2,5.2,3.1,6.9c0.7,0.6,1.6,0.9,2.5,0.9
		h4c0.9,0,1.8-0.3,2.5-0.9c1.9-1.7,3.1-4.1,3.1-6.7c0,0,0-0.1,0-0.1c0-0.7-0.1-1.3-0.2-2C19.4,14.6,18.8,14.1,18.2,14.1z M5.5,15.4
		c0.1-0.3,0.3-0.4,0.6-0.4h12.1c0.3,0,0.5,0.2,0.6,0.4c0.1,0.6,0.2,1.2,0.2,1.8c0,0,0,0,0,0h-3.8l0.7-1.2c0.1-0.2,0-0.4-0.1-0.5
		c-0.2-0.1-0.4,0-0.5,0.1l-0.9,1.5h-9c0,0,0,0,0-0.1C5.3,16.5,5.3,16,5.5,15.4z M16.1,23.4c-0.5,0.5-1.2,0.7-2,0.7h-4
		c-0.7,0-1.4-0.2-2-0.7c-1.6-1.4-2.7-3.5-2.8-5.8h8.8l-3,5.3c-0.1,0.2,0,0.4,0.1,0.5c0.2,0.1,0.4,0,0.5-0.1l3.3-5.7h4
		C18.8,19.9,17.8,22,16.1,23.4z"/>
	<path class="st0" d="M25.5,5.4c0-0.2-0.3-0.3-0.5-0.3L21,6c-0.1,0-0.2,0.1-0.3,0.2l-1.1,1.9c-0.9-0.4-2-0.7-3.1-0.7
		c-0.9,0-1.8,0.1-2.7,0.4c-0.1,0-0.2,0.1-0.3,0.2c-0.1,0.1-0.1,0.2-0.1,0.3c0,0.2,0.1,0.4,0.3,0.5C14,9,14.3,9.4,14.4,9.9
		c0,0.2,0.1,0.3,0.2,0.4c0.1,0.1,0.3,0.2,0.4,0.2c0.1,0,0.1,0,0.2,0c0.1,0,0.3,0,0.4,0c0.3,0,0.7,0.1,1,0.3c0.4,0.3,0.7,0.7,0.8,1.1
		c0,0,0,0.1,0,0.1l-0.8,1.3c-0.1,0.2,0,0.4,0.1,0.5c0.2,0.1,0.4,0,0.5-0.1l0.8-1.3c0,0,0.1,0,0.1,0c0.1,0,0.3,0,0.4,0
		c0.3,0,0.7,0.1,1,0.3c0.4,0.3,0.7,0.7,0.8,1.1c0.1,0.3,0.3,0.5,0.7,0.5c0.1,0,0.1,0,0.2,0c0.2,0,0.3-0.1,0.5-0.1
		c0.3,0,0.6,0.1,0.9,0.3c0.1,0.1,0.2,0.1,0.3,0.1c0.1,0,0.3-0.1,0.4-0.1c0.1-0.1,0.2-0.2,0.2-0.4l0-0.1l0,0c-0.2-2-1-3.6-2.2-4.8
		c-0.3-0.3-0.6-0.5-0.9-0.7l1-1.7l3.9-0.9C25.4,5.8,25.5,5.6,25.5,5.4z M20.7,9.7c1,0.9,1.6,2.2,1.9,3.8c-0.3-0.1-0.6-0.2-0.9-0.2
		c-0.2,0-0.4,0-0.6,0.1c-0.2-0.6-0.6-1.2-1.1-1.5c-0.4-0.3-0.9-0.4-1.4-0.4c-0.2,0-0.3,0-0.5,0c0,0,0,0,0,0c0,0,0,0,0,0
		c-0.2-0.6-0.5-1.1-1.1-1.5c-0.4-0.3-0.9-0.4-1.4-0.4c-0.2,0-0.3,0-0.5,0c-0.1-0.5-0.3-0.9-0.6-1.2c0.7-0.2,1.4-0.3,2-0.3
		C18.2,8.2,19.6,8.7,20.7,9.7z"/>
	<path class="st0" d="M7,18.7c0-0.2-0.3-0.3-0.5-0.3c-0.2,0-0.3,0.3-0.3,0.5h0c0.3,1.6,1.2,3,2.4,4c0.2,0.1,0.4,0.1,0.6,0
		c0.1-0.2,0.1-0.4,0-0.6C8,21.4,7.3,20.2,7,18.7z"/>
</g>
</svg>
