<?xml version="1.0" encoding="utf-8"?>
<!-- Generator: Adobe Illustrator 25.0.1, SVG Export Plug-In . SVG Version: 6.00 Build 0)  -->
<svg version="1.1" id="圖層_1" xmlns="http://www.w3.org/2000/svg" xmlns:xlink="http://www.w3.org/1999/xlink" x="0px" y="0px"
	 viewBox="0 0 30 30" style="enable-background:new 0 0 30 30;" xml:space="preserve">
<style type="text/css">
	.st0{fill:#231F20;}
</style>
<path class="st0" d="M22.1,8C22.1,7.9,22.1,7.9,22.1,8C22.1,7.9,22.1,7.9,22.1,8c-1.9-1.8-4.3-3-7.1-3C9.5,5,5,9.5,5,15
	c0,2.7,1.1,5.2,2.9,7c0,0,0,0,0,0c0,0,0,0,0,0c1.8,1.8,4.3,2.9,7,2.9c5.5,0,10-4.5,10-10C25,12.3,23.9,9.8,22.1,8z M15,6
	c2.3,0,4.4,0.9,6,2.3L15.3,14h-4.1c0.2-0.3,0.7-0.6,0.8-0.7c0.4-0.2,0.9-0.4,1.4-0.5c0.2,0,0.3-0.1,0.5-0.1c0.6-0.2,1.5-0.5,2-1.3
	c0.6-0.9,0.5-1.7,0.3-2.6l-0.1-0.3c0-0.3-0.3-0.5-0.6-0.4c-0.3,0-0.5,0.3-0.4,0.6L15.3,9c0.2,0.9,0.2,1.3-0.2,1.9
	c-0.3,0.4-0.8,0.7-1.5,0.9c-0.2,0-0.3,0.1-0.5,0.1c-0.5,0.1-1.1,0.3-1.6,0.6c-0.8,0.5-1.3,1-1.4,1.6H9c0.1-1,0.3-1.7,1.2-2.1
	c0.2-0.1,0.6-0.2,0.9-0.3c0.4-0.1,0.9-0.2,1.2-0.5c0.7-0.4,0.8-0.8,0.9-1.5c0-0.3,0-0.7-0.1-1.1c0-0.3-0.3-0.5-0.6-0.4
	c-0.3,0-0.5,0.3-0.4,0.6c0.1,0.3,0.1,0.6,0.1,0.9c0,0.4-0.1,0.5-0.4,0.7c-0.2,0.1-0.6,0.3-1,0.4c-0.4,0.1-0.8,0.2-1.1,0.4
	C8.1,11.8,8,13.3,8,14.5v3C8,17.8,8.2,18,8.5,18h2h0h0.8l-3,3C6.9,19.4,6,17.3,6,15C6,10,10,6,15,6z M21,15v2h-2v-2H21z M18,17h-4.3
	l2-2H18V17z M12.3,17H11l0-2h3.3L12.3,17z M9,17v-2h1l0,2H9z M15,24c-2.3,0-4.4-0.9-6-2.3l3.7-3.7h8.8c0.3,0,0.5-0.2,0.5-0.5v-3
	c0-0.3-0.2-0.5-0.5-0.5h-4.8l5-5c1.4,1.6,2.3,3.7,2.3,6C24,20,20,24,15,24z"/>
</svg>
