<?xml version="1.0" encoding="utf-8"?>
<!-- Generator: Adobe Illustrator 25.0.1, SVG Export Plug-In . SVG Version: 6.00 Build 0)  -->
<svg version="1.1" id="圖層_1" xmlns="http://www.w3.org/2000/svg" xmlns:xlink="http://www.w3.org/1999/xlink" x="0px" y="0px"
	 viewBox="0 0 30 30" style="enable-background:new 0 0 30 30;" xml:space="preserve">
<style type="text/css">
	.st0{fill:#0AA7B7;}
</style>
<g>
	<path class="st0" d="M25.9,22.7l-1.5-2.5c-0.5-0.9-1.4-1.4-2.4-1.4H9.9l-0.1,0l-3.4-4.9c-0.3-0.4-0.7-0.6-1.1-0.6
		c-0.3,0-0.6,0.1-0.8,0.2c-0.3,0.2-0.5,0.5-0.6,0.9c-0.1,0.4,0,0.7,0.2,1l3.3,4.8L6,22.7c-0.4,0.7-0.2,1.5,0.5,1.9
		c0.2,0.1,0.5,0.2,0.7,0.2c0.5,0,1-0.3,1.2-0.7l1.5-2.5l0,0H22l0,0l1.5,2.5c0.2,0.4,0.7,0.7,1.2,0.7c0.2,0,0.5-0.1,0.7-0.2
		C26.1,24.2,26.3,23.4,25.9,22.7z M25,23.9C24.9,24,24.8,24,24.7,24c-0.2,0-0.4-0.1-0.5-0.3l-1.5-2.5c-0.1-0.3-0.4-0.4-0.7-0.4H9.9
		c-0.3,0-0.6,0.2-0.7,0.4l-1.5,2.5C7.6,23.9,7.4,24,7.2,24c-0.1,0-0.2,0-0.3-0.1c-0.3-0.2-0.4-0.5-0.2-0.8l1.5-2.5
		c0.1-0.1,0.2-0.2,0.2-0.3L4.8,15c-0.2-0.3-0.1-0.6,0.2-0.8c0.1-0.1,0.2-0.1,0.3-0.1c0.2,0,0.4,0.1,0.5,0.3l3.7,5.3
		c0.2,0,0.3-0.1,0.5-0.1H22c0.7,0,1.4,0.4,1.8,1l1.5,2.5C25.4,23.4,25.3,23.8,25,23.9z"/>
	<path class="st0" d="M12.3,13.9l-2,3.4c-0.1,0.2,0,0.4,0.1,0.5c0.2,0.1,0.4,0,0.5-0.1l2-3.4c0.1-0.2,0-0.4-0.1-0.5
		C12.7,13.6,12.5,13.7,12.3,13.9z"/>
	<path class="st0" d="M7.1,7c0.6,0.4,1.1,1.1,1.3,1.9c0,0.2,0.1,0.4,0.3,0.5C8.8,9.6,9,9.7,9.2,9.7c0.1,0,0.1,0,0.2,0
		c0.2-0.1,0.4-0.1,0.7-0.1c0.6,0,1.2,0.2,1.7,0.5c0.7,0.5,1.2,1.2,1.4,2c0.1,0.4,0.4,0.7,0.8,0.7c0.1,0,0.1,0,0.2,0
		c0.2-0.1,0.5-0.1,0.7-0.1c0.6,0,1.2,0.2,1.7,0.5c0.7,0.5,1.2,1.2,1.4,2c0.1,0.4,0.4,0.7,0.8,0.7c0.1,0,0.2,0,0.2,0
		c0.3-0.1,0.6-0.1,0.8-0.1c0.6,0,1.1,0.2,1.6,0.5c0.1,0.1,0.2,0.1,0.3,0.1c0.2,0,0.3-0.1,0.4-0.2c0.1-0.1,0.2-0.3,0.2-0.5l0-0.1l0,0
		C22.2,12.4,20.9,9.8,19,8c-0.5-0.5-1.1-0.9-1.7-1.3l0.3-0.5c0.1-0.2,0-0.4-0.1-0.5c-0.2-0.1-0.4,0-0.5,0.1l-0.3,0.5
		c-1.5-0.8-3.2-1.2-5.2-1.2c-1.4,0-2.9,0.2-4.3,0.7C7.1,5.9,7,6,6.9,6.1C6.8,6.2,6.8,6.3,6.8,6.5C6.8,6.7,6.9,6.9,7.1,7z M12.2,9.4
		c-0.6-0.4-1.3-0.6-1.9-0.6l6.2-1.5l-2.6,4.4C13.6,10.8,13,10,12.2,9.4z M17,12.5c-0.6-0.4-1.4-0.6-2.1-0.6c-0.3,0-0.5,0-0.8,0.1
		l2.6-4.4l1.6,6.5C18.1,13.4,17.6,12.9,17,12.5z M18.5,8.6c1.7,1.6,2.8,3.9,3.2,6.7c-0.6-0.3-1.2-0.5-1.8-0.5c-0.3,0-0.6,0-0.8,0.1
		c0,0,0-0.1,0-0.1l-1.8-7.3C17.7,7.9,18.1,8.2,18.5,8.6z M11.5,6c1.7,0,3.3,0.4,4.6,1L9.1,8.7C8.9,7.8,8.4,7,7.8,6.5
		C9,6.2,10.3,6,11.5,6z M7.4,6.5L7.4,6.5L7.3,6.2L7.4,6.5z"/>
</g>
</svg>
