<?xml version="1.0" encoding="utf-8"?>
<!-- Generator: Adobe Illustrator 25.0.1, SVG Export Plug-In . SVG Version: 6.00 Build 0)  -->
<svg version="1.1" id="圖層_1" xmlns="http://www.w3.org/2000/svg" xmlns:xlink="http://www.w3.org/1999/xlink" x="0px" y="0px"
	 viewBox="0 0 30 30" style="enable-background:new 0 0 30 30;" xml:space="preserve">
<style type="text/css">
	.st0{fill:#221F20;}
</style>
<path class="st0" d="M25.1,14c0-0.3-0.1-0.6-0.2-1c0-0.1,0-0.1,0-0.2c-0.1-0.2-0.1-0.5-0.2-0.7c0-0.2-0.1-0.3-0.2-0.5
	c0-0.1-0.1-0.2-0.1-0.3l-0.1-0.1c0,0,0-0.1,0-0.1l-0.1-0.2h0c-0.9-2.1-2.6-3.8-4.6-4.9v0l-0.4-0.2c0,0-0.1,0-0.1-0.1
	c-0.1-0.1-0.3-0.1-0.4-0.1c-0.2-0.1-0.4-0.1-0.6-0.2c-0.1,0-0.3-0.1-0.4-0.1c-0.2-0.1-0.3-0.1-0.5-0.1c-0.2,0-0.4-0.1-0.6-0.1
	c-0.1,0-0.2,0-0.4-0.1c-0.3,0-0.5,0-0.8-0.1c-0.1,0-0.2,0-0.2,0c-0.1,0-0.1,0-0.2,0c-0.2,0-0.4,0-0.7,0c-0.1,0-0.1,0-0.2,0
	C13.9,5,13.6,5,13.3,5c-0.1,0-0.1,0-0.2,0c-0.3,0-0.5,0.1-0.8,0.2c-0.1,0-0.2,0-0.3,0.1c-0.2,0.1-0.4,0.1-0.6,0.2
	c-0.1,0-0.3,0.1-0.4,0.1l-0.5,0.2l0,0c-2.2,1-3.9,2.8-4.9,5h0l-0.2,0.4c-0.1,0.1-0.1,0.3-0.1,0.4c-0.1,0.1-0.1,0.3-0.1,0.4
	c-0.1,0.2-0.1,0.5-0.2,0.7c0,0.1,0,0.1-0.1,0.2C5,13.3,5,13.6,5,13.9c0,0,0,0,0,0c0,0.3-0.1,0.7-0.1,1c0,1.2,0.2,2.4,0.7,3.6
	c0.1,0.1,0.1,0.3,0.1,0.4c0,0,0,0,0,0.1l0.2,0.5l0,0c1,2.1,2.7,3.7,4.8,4.7l0,0l0.5,0.2c0.1,0.1,0.3,0.1,0.4,0.1
	c0.1,0.1,0.3,0.1,0.4,0.1c0.2,0.1,0.3,0.1,0.5,0.1c0.2,0,0.3,0.1,0.5,0.1c0.2,0,0.4,0.1,0.5,0.1c0.2,0,0.3,0.1,0.4,0.1
	c0.2,0,0.5,0,0.7,0c0.1,0,0.2,0,0.3,0c0.7,0,1.4-0.1,2.1-0.2c0.2,0,0.4-0.1,0.6-0.2c0.1,0,0.2-0.1,0.3-0.1c0.3-0.1,0.6-0.2,0.9-0.3
	c0,0,0,0,0,0c0,0,0.1,0,0.1,0l0.5-0.2l0,0c2-1,3.5-2.6,4.5-4.6l0,0l0.2-0.5c0,0,0,0,0-0.1c0.1-0.1,0.1-0.3,0.2-0.5
	c0.1-0.2,0.1-0.3,0.2-0.5c0,0,0-0.1,0-0.1C25,17,25.1,16,25.1,15C25.1,14.7,25.1,14.3,25.1,14z M11.1,6.8l1.8,4.3
	c-0.6,0.3-1.2,0.8-1.6,1.4l-4.5-1.3C7.7,9.3,9.2,7.7,11.1,6.8z M11.2,23.2c-1.9-0.9-3.4-2.3-4.3-4.2l4.2-1.8
	c0.4,0.7,1.1,1.3,1.8,1.7L11.2,23.2z M15,18.7c-2,0-3.7-1.6-3.7-3.7c0-2,1.6-3.7,3.7-3.7s3.7,1.6,3.7,3.7C18.7,17,17,18.7,15,18.7z
	 M19.1,23.1l-1.7-4.3c0.6-0.4,1.1-0.9,1.5-1.5l4.3,1.8C22.2,20.8,20.8,22.2,19.1,23.1z M18.6,12.5c-0.3-0.5-0.7-0.9-1.2-1.2L19.2,7
	c1.7,0.9,3.1,2.4,4,4.2L18.6,12.5z"/>
</svg>
