<?xml version="1.0" encoding="utf-8"?>
<!-- Generator: Adobe Illustrator 25.0.1, SVG Export Plug-In . SVG Version: 6.00 Build 0)  -->
<svg version="1.1" id="圖層_1" xmlns="http://www.w3.org/2000/svg" xmlns:xlink="http://www.w3.org/1999/xlink" x="0px" y="0px"
	 viewBox="0 0 30 30" style="enable-background:new 0 0 30 30;" xml:space="preserve">
<style type="text/css">
	.st0{fill:none;stroke:#0AA7B7;stroke-width:0.7;stroke-linecap:round;stroke-linejoin:round;stroke-miterlimit:10;}
</style>
<g>
	<path class="st0" d="M16.9,13.3c0-1.2,1-2.2,2.2-2.2s2.2,1,2.2,2.2"/>
	<path class="st0" d="M5.5,21.8v1.6c0,0.9,0.7,1.6,1.6,1.6h1.8c0.9,0,1.6-0.7,1.6-1.6v-1.5"/>
	<path class="st0" d="M19.6,21.8v1.5c0,0.9,0.7,1.6,1.6,1.6H23c0.9,0,1.6-0.7,1.6-1.6v-1.5"/>
	<g>
		<path class="st0" d="M24.9,14.9c0.8,0,1.5-0.7,1.5-1.6c0-0.9-0.7-1.6-1.6-1.6h-1.5"/>
	</g>
	<g>
		<path class="st0" d="M6.7,11.7H5.2c-0.9,0-1.6,0.7-1.6,1.6s0.7,1.6,1.6,1.6"/>
	</g>
	<path class="st0" d="M25.4,19.8v-3.1c0-1.8-1.4-3.2-3.2-3.2H7.9c-1.8,0-3.2,1.4-3.2,3.2v3"/>
	<path class="st0" d="M3.8,20.3v0.9c0,0.2,0.2,0.4,0.4,0.4h21.6c0.2,0,0.4-0.2,0.4-0.4v-0.9c0-0.2-0.2-0.4-0.4-0.4H4.2
		C4,19.9,3.8,20.1,3.8,20.3z"/>
	<path class="st0" d="M23.3,13.7l-0.9-5.6c-0.2-0.9-1-1.6-1.9-1.6h-11c-0.9,0-1.8,0.7-1.9,1.6l-0.9,5.6"/>
	<path class="st0" d="M13.9,6.3C13.7,5.6,13,5,12.2,5s-1.5,0.6-1.7,1.3"/>
	<circle class="st0" cx="7.9" cy="16.7" r="1.7"/>
	<circle class="st0" cx="22.1" cy="16.7" r="1.7"/>
	<path class="st0" d="M18.6,19.7V19c0-0.8-0.7-1.5-1.5-1.5h-4.2c-0.8,0-1.5,0.7-1.5,1.5v0.7"/>
	<line class="st0" x1="7.7" y1="8.2" x2="22.3" y2="8.2"/>
</g>
</svg>
