<?xml version="1.0" encoding="utf-8"?>
<!-- Generator: Adobe Illustrator 25.0.1, SVG Export Plug-In . SVG Version: 6.00 Build 0)  -->
<svg version="1.1" id="圖層_1" xmlns="http://www.w3.org/2000/svg" xmlns:xlink="http://www.w3.org/1999/xlink" x="0px" y="0px"
	 viewBox="0 0 30 30" style="enable-background:new 0 0 30 30;" xml:space="preserve">
<g>
	<path d="M19.5,5.5h-9C9.7,5.5,9,6.2,9,7v15c0,0.8,0.7,1.5,1.5,1.5H11V24c0,0.3,0.2,0.5,0.5,0.5S12,24.3,12,24v-0.5h6V24
		c0,0.3,0.2,0.5,0.5,0.5S19,24.3,19,24v-0.5h0.5c0.8,0,1.5-0.7,1.5-1.5V7C21,6.2,20.3,5.5,19.5,5.5z M10.5,6.5h9
		C19.8,6.5,20,6.7,20,7v5.5H10V7C10,6.7,10.2,6.5,10.5,6.5z M19.5,22.5h-9c-0.3,0-0.5-0.2-0.5-0.5v-8.5h10V22
		C20,22.3,19.8,22.5,19.5,22.5z"/>
	<path d="M11.5,10.5c0.3,0,0.5-0.2,0.5-0.5V9c0-0.3-0.2-0.5-0.5-0.5S11,8.7,11,9v1C11,10.3,11.2,10.5,11.5,10.5z"/>
	<path d="M11.5,15.5c-0.3,0-0.5,0.2-0.5,0.5v1c0,0.3,0.2,0.5,0.5,0.5S12,17.3,12,17v-1C12,15.7,11.8,15.5,11.5,15.5z"/>
</g>
</svg>
