<?xml version="1.0" encoding="utf-8"?>
<!-- Generator: Adobe Illustrator 25.0.1, SVG Export Plug-In . SVG Version: 6.00 Build 0)  -->
<svg version="1.1" id="圖層_1" xmlns="http://www.w3.org/2000/svg" xmlns:xlink="http://www.w3.org/1999/xlink" x="0px" y="0px"
	 viewBox="0 0 30 30" style="enable-background:new 0 0 30 30;" xml:space="preserve">
<style type="text/css">
	.st0{fill:#221F20;}
</style>
<g>
	<path class="st0" d="M22.5,5.5h-15C6.7,5.5,6,6.2,6,7v15c0,0.8,0.7,1.5,1.5,1.5H9V24c0,0.3,0.2,0.5,0.5,0.5S10,24.3,10,24v-0.5h10
		V24c0,0.3,0.2,0.5,0.5,0.5S21,24.3,21,24v-0.5h1.5c0.8,0,1.5-0.7,1.5-1.5V7C24,6.2,23.3,5.5,22.5,5.5z M7.5,22.5
		C7.2,22.5,7,22.3,7,22V7c0-0.3,0.2-0.5,0.5-0.5H9v3H8.5C8.2,9.5,8,9.7,8,10s0.2,0.5,0.5,0.5H9v8H8.5C8.2,18.5,8,18.7,8,19
		s0.2,0.5,0.5,0.5H9v3H7.5z M23,22c0,0.3-0.2,0.5-0.5,0.5H10v-3h0.5c0.3,0,0.5-0.2,0.5-0.5s-0.2-0.5-0.5-0.5H10v-8h0.5
		c0.3,0,0.5-0.2,0.5-0.5s-0.2-0.5-0.5-0.5H10v-3h12.5C22.8,6.5,23,6.7,23,7V22z"/>
	<path class="st0" d="M20.5,9.5h-7C13.2,9.5,13,9.7,13,10v4c0,0.3,0.2,0.5,0.5,0.5h7c0.3,0,0.5-0.2,0.5-0.5v-4
		C21,9.7,20.8,9.5,20.5,9.5z M20,13.5h-6v-3h6V13.5z"/>
	<path class="st0" d="M14.5,15.5h-1c-0.3,0-0.5,0.2-0.5,0.5s0.2,0.5,0.5,0.5h1c0.3,0,0.5-0.2,0.5-0.5S14.8,15.5,14.5,15.5z"/>
	<path class="st0" d="M17.5,15.5h-1c-0.3,0-0.5,0.2-0.5,0.5s0.2,0.5,0.5,0.5h1c0.3,0,0.5-0.2,0.5-0.5S17.8,15.5,17.5,15.5z"/>
	<path class="st0" d="M20.5,15.5h-1c-0.3,0-0.5,0.2-0.5,0.5s0.2,0.5,0.5,0.5h1c0.3,0,0.5-0.2,0.5-0.5S20.8,15.5,20.5,15.5z"/>
	<path class="st0" d="M14.5,17.5h-1c-0.3,0-0.5,0.2-0.5,0.5s0.2,0.5,0.5,0.5h1c0.3,0,0.5-0.2,0.5-0.5S14.8,17.5,14.5,17.5z"/>
	<path class="st0" d="M17.5,17.5h-1c-0.3,0-0.5,0.2-0.5,0.5s0.2,0.5,0.5,0.5h1c0.3,0,0.5-0.2,0.5-0.5S17.8,17.5,17.5,17.5z"/>
	<path class="st0" d="M20.5,17.5h-1c-0.3,0-0.5,0.2-0.5,0.5s0.2,0.5,0.5,0.5h1c0.3,0,0.5-0.2,0.5-0.5S20.8,17.5,20.5,17.5z"/>
	<path class="st0" d="M14.5,19.5h-1c-0.3,0-0.5,0.2-0.5,0.5s0.2,0.5,0.5,0.5h1c0.3,0,0.5-0.2,0.5-0.5S14.8,19.5,14.5,19.5z"/>
	<path class="st0" d="M17.5,19.5h-1c-0.3,0-0.5,0.2-0.5,0.5s0.2,0.5,0.5,0.5h1c0.3,0,0.5-0.2,0.5-0.5S17.8,19.5,17.5,19.5z"/>
	<path class="st0" d="M20.5,19.5h-1c-0.3,0-0.5,0.2-0.5,0.5s0.2,0.5,0.5,0.5h1c0.3,0,0.5-0.2,0.5-0.5S20.8,19.5,20.5,19.5z"/>
</g>
</svg>
