<?xml version="1.0" encoding="utf-8"?>
<!-- Generator: Adobe Illustrator 25.0.1, SVG Export Plug-In . SVG Version: 6.00 Build 0)  -->
<svg version="1.1" id="圖層_1" xmlns="http://www.w3.org/2000/svg" xmlns:xlink="http://www.w3.org/1999/xlink" x="0px" y="0px"
	 viewBox="0 0 30 30" style="enable-background:new 0 0 30 30;" xml:space="preserve">
<style type="text/css">
	.st0{fill:none;stroke:#0AA7B7;stroke-width:0.7;stroke-linecap:round;stroke-linejoin:round;stroke-miterlimit:10;}
</style>
<g>
	<circle class="st0" cx="15" cy="5.3" r="2.8"/>
	<path class="st0" d="M17.7,19.4h2v-6.6c0-2.2-1.8-4-4-4h-1.4c-2.2,0-4,1.8-4,4v6.6h1.9"/>
	<line class="st0" x1="12.2" y1="18.2" x2="12.2" y2="27.5"/>
	<line class="st0" x1="15" y1="19.4" x2="15" y2="27.5"/>
	<line class="st0" x1="17.7" y1="18.2" x2="17.7" y2="27.5"/>
	<circle class="st0" cx="6.8" cy="9" r="2.3"/>
	<path class="st0" d="M4.5,20.8H2.9v-5.5c0-1.9,1.5-3.4,3.4-3.4h1.2c1.2,0,2.2,0.6,2.8,1.5"/>
	<polyline class="st0" points="10.8,19.4 10.8,20.8 9.1,20.8 	"/>
	<line class="st0" x1="4.5" y1="19.8" x2="4.5" y2="27.5"/>
	<line class="st0" x1="6.8" y1="20.8" x2="6.8" y2="27.5"/>
	<line class="st0" x1="9.1" y1="19.8" x2="9.1" y2="27.5"/>
	<circle class="st0" cx="23.1" cy="9" r="2.3"/>
	<polyline class="st0" points="19.2,19.4 19.2,20.8 20.8,20.8 	"/>
	<path class="st0" d="M19.8,13.5c0.6-0.9,1.6-1.5,2.8-1.5h1.2c1.9,0,3.4,1.5,3.4,3.4v5.5h-1.7"/>
	<line class="st0" x1="20.8" y1="19.8" x2="20.8" y2="27.5"/>
	<line class="st0" x1="23.1" y1="20.8" x2="23.1" y2="27.5"/>
	<line class="st0" x1="25.5" y1="19.8" x2="25.5" y2="27.5"/>
</g>
</svg>
