<?xml version="1.0" encoding="utf-8"?>
<!-- Generator: Adobe Illustrator 25.0.1, SVG Export Plug-In . SVG Version: 6.00 Build 0)  -->
<svg version="1.1" id="圖層_1" xmlns="http://www.w3.org/2000/svg" xmlns:xlink="http://www.w3.org/1999/xlink" x="0px" y="0px"
	 viewBox="0 0 30 30" style="enable-background:new 0 0 30 30;" xml:space="preserve">
<style type="text/css">
	.st0{fill:none;}
	.st1{fill:#231F20;}
</style>
<g>
	<rect x="9" y="7.5" class="st0" width="2" height="1"/>
	<polygon class="st0" points="17,14.1 17,17.5 17.4,17.5 	"/>
	<rect x="17" y="9.5" class="st0" width="2" height="1"/>
	<path class="st0" d="M17.5,13.5H19v-2h-2V14c0-0.1,0-0.2,0.1-0.3C17.2,13.6,17.4,13.5,17.5,13.5z"/>
	<path class="st0" d="M23.3,11.5c0.3,0,0.5-0.2,0.5-0.5v2.5h-2v-2H23.3z"/>
	<ellipse class="st0" cx="17" cy="19.5" rx="3" ry="1"/>
	<rect x="7" y="15.5" class="st0" width="4" height="4"/>
	<path class="st0" d="M18.4,17.7c1.4,0.2,2.6,0.9,2.6,1.9c0,0.4-0.1,0.7-0.3,1h0.8c0.3,0,0.5,0.2,0.5,0.5v1.5h0l0.9-8h-4.9
		L18.4,17.7z"/>
	<path class="st0" d="M13,12c0-0.3-0.2-0.5-0.5-0.5h-5C7.2,11.5,7,11.7,7,12v2.5h4.5c0.3,0,0.5,0.2,0.5,0.5v5c0,0.3-0.2,0.5-0.5,0.5
		H7v2h5V21c0-0.3,0.2-0.5,0.5-0.5H13V12z"/>
	<rect x="13" y="21.5" class="st0" width="8" height="1"/>
	<path class="st1" d="M23.9,13.7c-0.1-0.1-0.2-0.2-0.4-0.2H20V9c0-0.3-0.2-0.5-0.5-0.5h-3C16.2,8.5,16,8.7,16,9v8.6
		c-0.8,0.1-1.5,0.3-2,0.6V12c0-0.8-0.7-1.5-1.5-1.5h-2v-1h1C11.8,9.5,12,9.3,12,9V8.5h1.3l0.9,0.9c0.1,0.1,0.2,0.1,0.3,0.1
		s0.3,0,0.3-0.1c0.2-0.2,0.2-0.5,0-0.7l-1-1c-0.1-0.1-0.2-0.1-0.3-0.1H12V7c0-0.3-0.2-0.5-0.5-0.5h-3C8.2,6.5,8,6.7,8,7v2
		c0,0.3,0.2,0.5,0.5,0.5h1v1h-2C6.7,10.5,6,11.2,6,12v11c0,0.3,0.2,0.5,0.5,0.5h16c0.2,0,0.5-0.2,0.5-0.4l1-9
		C24,13.9,24,13.8,23.9,13.7z M17,9.5h2v1h-2V9.5z M17,11.5h2v2h-1.5c-0.1,0-0.3,0.1-0.4,0.2C17,13.8,17,13.9,17,14V11.5z M17,14.1
		l0.4,3.4H17V14.1z M17,18.5c1.9,0,3,0.6,3,1c0,0.9-0.7,1-3,1s-3-0.1-3-1C14,19.1,15.1,18.5,17,18.5z M9,8.5v-1h2v1H9z M7,15.5h4v4
		H7V15.5z M12,21v1.5H7v-2h4.5c0.3,0,0.5-0.2,0.5-0.5v-5c0-0.3-0.2-0.5-0.5-0.5H7V12c0-0.3,0.2-0.5,0.5-0.5h5c0.3,0,0.5,0.2,0.5,0.5
		v8.5h-0.5C12.2,20.5,12,20.7,12,21z M21,22.5h-8v-1h8V22.5z M22,22.5L22,22.5l0-1.5c0-0.3-0.2-0.5-0.5-0.5h-0.8
		c0.2-0.3,0.3-0.6,0.3-1c0-1-1.2-1.6-2.6-1.9l-0.3-3.1h4.9L22,22.5z"/>
	<path class="st1" d="M23.3,7.5h-2c-0.3,0-0.5,0.2-0.5,0.5v5.5h1v-2h1.5c0.3,0,0.5-0.2,0.5-0.5V8C23.8,7.7,23.5,7.5,23.3,7.5z
		 M22.8,10.5h-1v-2h1V10.5z"/>
</g>
</svg>
