<?xml version="1.0" encoding="utf-8"?>
<!-- Generator: Adobe Illustrator 25.0.1, SVG Export Plug-In . SVG Version: 6.00 Build 0)  -->
<svg version="1.1" id="圖層_1" xmlns="http://www.w3.org/2000/svg" xmlns:xlink="http://www.w3.org/1999/xlink" x="0px" y="0px"
	 viewBox="0 0 30 30" style="enable-background:new 0 0 30 30;" xml:space="preserve">
<style type="text/css">
	.st0{fill:#0AA7B7;}
</style>
<path class="st0" d="M14.3,20.3c0,0.1,0,0.2,0,0.4c0,1.8-1.3,3.4-3.2,3.6c-0.2,0-0.3,0-0.4,0c-1.7,0-3.2-1.3-3.3-3.1l-0.1-1.7
	c0-0.1,0-0.3,0-0.4c-0.3-0.3-0.5-0.7-0.7-1.1c-1.2-2.5-0.8-6.4,1.7-8.2c0.1-0.1,0.4-0.2,0.5-0.3C9,9.5,9,9.2,9,9
	c0-0.2,0-0.3,0.1-0.5c0.1-0.1,0.2-0.2,0.4-0.2h0.1c0.3,0,0.6,0.2,0.6,0.5c0,0.2,0.2,0.5,0.3,0.5c0.4,0.1,0.7,0.3,1,0.5
	c0,0,0.1,0.1,0.1,0.1c0.2,0.2,0.4,0.3,0.5,0.5l0-1.2V9.2c0-1.2-0.8-2.3-2-2.7C9.9,6.5,9.6,6.4,9.4,6.4C8.7,6.4,8,6.7,7.5,7.2
	L7.3,7.3c-0.9,0.9-1.5,2.1-1.5,3.4c0,0.5,0.1,1,0.2,1.4c0.1,0.2,0,0.4-0.2,0.5s-0.4,0-0.5-0.2C5.1,11.8,5,11.3,5,10.7
	c0-1.5,0.6-2.9,1.7-3.9l0.2-0.2c0.7-0.6,1.6-1,2.5-1c0.3,0,0.7,0,1,0.2C11.9,6.2,13,7.6,13,9.2l0,0.1l-0.1,2.2
	c1.4,2.3,1.3,5.5,0.3,7.7c-0.1,0.2-0.4,0.4-0.6,0.5c0,0-0.1,0-0.1,0c-0.1,0-0.2,0-0.3-0.1c-0.4-0.2-0.6-0.7-0.4-1.1
	c0.4-0.9,0.6-1.8,0.6-2.7c-0.1-0.6-0.2-1.1-0.2-1.7c-0.3-1.1-0.9-2.1-1.7-3c-0.2-0.2-0.3-0.2-0.5-0.2c-0.2,0-0.6,0.1-1.1,0.8
	c-1.8,2.1-1.6,5.2,0.3,7.1c0.1,0.2,0.2,0.4,0.2,0.6c0,0.2-0.1,0.4-0.2,0.6c-0.2,0.2-0.4,0.2-0.6,0.2c-0.2,0-0.3,0-0.4-0.1l0.1,1.1
	c0.1,1.3,1.2,2.3,2.5,2.3c0.1,0,0.2,0,0.3,0c1.5-0.2,2.5-1.5,2.5-2.8c0-0.1,0-0.2,0-0.3c0-0.1,0-0.3-0.1-0.5c0-0.2,0.1-0.4,0.3-0.5
	s0.4,0.1,0.5,0.3C14.2,20,14.3,20.2,14.3,20.3z"/>
<path class="st0" d="M25,10.7c0,0.6-0.1,1.2-0.3,1.8l0,0l-0.7,1.6c0.2,1.4-0.1,2.9-0.7,4c-0.4,0.7-0.8,1.3-1.4,1.9
	c-0.1,0.1-0.3,0.2-0.6,0.2c-0.2,0-0.4-0.1-0.6-0.2c-0.2-0.2-0.2-0.4-0.2-0.6c0-0.2,0.1-0.4,0.2-0.6c2-1.9,2.2-5,0.4-7.1
	c-0.5-0.7-0.9-0.8-1.1-0.8c-0.2,0-0.3,0.1-0.5,0.2c-0.9,0.8-1.4,1.9-1.7,3c0,0.6-0.1,1.1-0.2,1.7c0,0.9,0.2,1.9,0.6,2.7
	c0.2,0.4,0,0.9-0.4,1.1c-0.1,0-0.2,0.1-0.3,0.1c0,0-0.1,0-0.1,0c-0.2,0-0.4-0.2-0.6-0.4c-0.1,0.4-0.2,0.7-0.3,1c0,0.1,0,0.1,0,0.1
	c0,0.1,0,0.2,0,0.3c0,1.4,1,2.6,2.4,2.8c0.1,0,0.2,0,0.4,0c1.3,0,2.4-1,2.5-2.3c0-0.2,0.2-0.4,0.4-0.4c0.2,0,0.4,0.2,0.4,0.4
	c-0.1,1.7-1.6,3-3.2,3c-0.2,0-0.3,0-0.5,0h0c-1.8-0.3-3.1-1.8-3.1-3.6c0-0.2,0-0.3,0-0.4c0-0.1,0-0.1,0-0.2c0,0,0-0.1,0-0.2
	c0-0.1,0.1-0.3,0.1-0.5c0.1-0.3,0.3-0.8,0.4-1c0-0.1,0.1-0.2,0.1-0.3C15.5,15.4,16,12,18.4,10c0,0,0.1-0.1,0.1-0.1
	c0.3-0.3,0.7-0.4,1-0.5c0.1,0,0.2-0.3,0.3-0.5c0-0.3,0.3-0.5,0.6-0.5l0.1,0c0.2,0,0.3,0.1,0.4,0.2C21,8.7,21,8.9,21,9
	c0,0.2,0.1,0.5,0.1,0.6c0.1,0.1,0.5,0.2,0.5,0.3c1,0.7,1.6,1.8,2,2.9l0.3-0.6c0.2-0.5,0.2-1,0.2-1.5c0-1.2-0.5-2.4-1.4-3.3l-0.2-0.2
	c-0.5-0.5-1.2-0.8-2-0.8c-0.2,0-0.5,0-0.8,0.1c-1.2,0.3-2.1,1.4-2.1,2.7v0c0,0.2-0.2,0.4-0.4,0.4c-0.2,0-0.4-0.2-0.4-0.4V9.2
	c0-1.6,1.1-3,2.6-3.5c0.3-0.1,0.6-0.1,1-0.1c0.9,0,1.8,0.4,2.5,1l0.2,0.1C24.4,7.8,25,9.2,25,10.7z"/>
<g>
	<path class="st0" d="M23.3,6.8l-0.2-0.1c-0.7-0.7-1.6-1-2.5-1c-0.3,0-0.6,0-1,0.1C18.1,6.2,17,7.6,17,9.2v0.1
		c0,0.2,0.2,0.4,0.4,0.4c0.2,0,0.4-0.2,0.4-0.4v0c0-1.3,0.8-2.4,2.1-2.7c0.2-0.1,0.5-0.1,0.8-0.1c0.7,0,1.4,0.3,2,0.8l0.2,0.2
		c0.9,0.9,1.4,2.1,1.4,3.3c0,0.5-0.1,1-0.2,1.5l-0.3,0.6c-0.4-1.1-1-2.2-2-2.9c-0.1-0.1-0.4-0.2-0.5-0.3C21.1,9.5,21,9.2,21,9
		c0-0.2,0-0.3-0.1-0.5c-0.1-0.1-0.2-0.2-0.4-0.2l-0.1,0c-0.3,0-0.6,0.2-0.6,0.5c0,0.2-0.2,0.5-0.3,0.5c-0.3,0.1-0.7,0.2-1,0.5
		c0,0-0.1,0.1-0.1,0.1c-2.4,2-2.9,5.5-2.2,8.2c0,0.1-0.1,0.2-0.1,0.3c-0.1,0.3-0.2,0.7-0.4,1c0,0.2-0.1,0.3-0.1,0.5
		c0,0.1,0,0.1,0,0.2c0,0,0,0.1,0,0.2c0,0.1,0,0.3,0,0.4c0,1.8,1.3,3.3,3.1,3.6h0c0.2,0,0.3,0,0.5,0c1.7,0,3.1-1.3,3.2-3
		c0-0.2-0.1-0.4-0.4-0.4c-0.2,0-0.4,0.1-0.4,0.4c-0.1,1.3-1.2,2.3-2.5,2.3c-0.1,0-0.2,0-0.4,0c-1.4-0.2-2.4-1.5-2.4-2.8
		c0-0.1,0-0.2,0-0.3c0,0,0-0.1,0-0.1c0.1-0.2,0.2-0.6,0.3-1c0.1,0.2,0.3,0.4,0.6,0.4c0,0,0.1,0,0.1,0c0.1,0,0.2,0,0.3-0.1
		c0.4-0.2,0.6-0.7,0.4-1.1c-0.4-0.9-0.6-1.8-0.6-2.7c0.1-0.6,0.2-1.1,0.2-1.7c0.3-1.1,0.9-2.1,1.7-3c0.2-0.2,0.3-0.2,0.5-0.2
		c0.2,0,0.6,0.1,1.1,0.8c1.7,2.1,1.6,5.3-0.4,7.1c-0.2,0.2-0.2,0.4-0.2,0.6c0,0.2,0.1,0.4,0.2,0.6c0.2,0.2,0.4,0.2,0.6,0.2
		c0.2,0,0.4-0.1,0.6-0.2c0.6-0.5,1-1.2,1.4-1.9c0.6-1.2,0.8-2.6,0.7-4l0.7-1.6l0,0c0.2-0.6,0.3-1.2,0.3-1.8
		C25,9.2,24.4,7.8,23.3,6.8z M22.9,18c-0.3,0.7-0.8,1.2-1.3,1.8c-0.1,0.1-0.2,0.1-0.3,0.1c-0.1,0-0.2,0-0.3-0.1
		c-0.2-0.2-0.1-0.4,0-0.6c2.1-2,2.3-5.4,0.5-7.7c-0.4-0.5-0.9-1-1.4-1c-0.2,0-0.5,0.1-0.8,0.3c-0.6,0.6-1,1.2-1.4,1.9
		c-0.6,1.3-0.8,2.8-0.6,4.3c0.1,0.5,0.3,1.1,0.5,1.6c0.1,0.2,0,0.5-0.2,0.6c-0.1,0-0.1,0-0.2,0h-0.1c-0.1,0-0.3-0.1-0.3-0.2
		c0-0.1-0.1-0.2-0.1-0.3c-0.1-0.1-0.1-0.3-0.2-0.5c-0.1-0.2-0.1-0.3-0.1-0.5c0-0.2-0.1-0.4-0.1-0.6c-0.3-1.6,0-3.4,0.7-4.9
		c0,0,0-0.1,0-0.1c0.4-0.7,0.9-1.4,1.5-1.9c0,0,0.1-0.1,0.1-0.1c0.3-0.2,0.5-0.4,0.8-0.4c0.3-0.1,0.5-0.5,0.6-0.8
		c0-0.1,0.1-0.2,0.2-0.2h0c0.1,0,0.2,0.1,0.2,0.2c0,0.3,0.1,0.8,0.3,1c0.2,0.1,0.5,0.3,0.5,0.3c1,0.8,1.6,1.9,1.9,3.1
		c0.1,0.5,0.2,1,0.2,1.5C23.6,16,23.4,17.1,22.9,18z"/>
	<path class="st0" d="M14.3,20.3c0-0.2-0.1-0.4-0.1-0.6c-0.1-0.2-0.3-0.3-0.5-0.3s-0.3,0.3-0.3,0.5c0,0.2,0.1,0.3,0.1,0.5
		c0,0.1,0,0.2,0,0.3c0,1.4-1,2.6-2.5,2.8c-0.1,0-0.2,0-0.3,0c-1.3,0-2.4-1-2.5-2.3l-0.1-1.1c0.1,0.1,0.3,0.1,0.4,0.1
		c0.2,0,0.4-0.1,0.6-0.2c0.2-0.2,0.2-0.4,0.2-0.6c0-0.2-0.1-0.4-0.2-0.6c-2-1.9-2.1-5-0.3-7.1c0.6-0.7,0.9-0.8,1.1-0.8
		c0.2,0,0.3,0.1,0.5,0.2c0.8,0.9,1.4,1.9,1.7,3c0,0.6,0.1,1.1,0.2,1.7c0,0.9-0.2,1.9-0.6,2.7c-0.2,0.4,0,0.9,0.4,1.1
		c0.1,0.1,0.2,0.1,0.3,0.1c0,0,0.1,0,0.1,0c0.3,0,0.5-0.2,0.6-0.5c1-2.2,1.1-5.3-0.3-7.7L13,9.3l0-0.1c0-1.6-1-3-2.6-3.4
		c-0.3-0.1-0.7-0.2-1-0.2c-0.9,0-1.8,0.3-2.5,1L6.7,6.8C5.6,7.8,5,9.2,5,10.7c0,0.6,0.1,1.1,0.3,1.7c0.1,0.2,0.3,0.3,0.5,0.2
		s0.3-0.3,0.2-0.5c-0.2-0.5-0.2-1-0.2-1.4c0-1.2,0.5-2.5,1.5-3.4l0.2-0.2C8,6.7,8.7,6.4,9.4,6.4c0.3,0,0.5,0,0.8,0.1
		c1.2,0.4,2,1.5,2,2.7v0.1l0,1.2c-0.2-0.2-0.4-0.4-0.5-0.5c0,0-0.1-0.1-0.1-0.1c-0.3-0.3-0.6-0.4-1-0.5c-0.1,0-0.2-0.3-0.3-0.5
		c0-0.3-0.3-0.5-0.6-0.5H9.5c-0.2,0-0.3,0.1-0.4,0.2C9,8.7,9,8.8,9,9C9,9.2,9,9.5,8.9,9.6C8.8,9.6,8.4,9.8,8.3,9.9
		c-2.5,1.8-2.9,5.7-1.7,8.2c0.2,0.4,0.4,0.8,0.7,1.1c0,0.1,0,0.3,0,0.4l0.1,1.7c0.1,1.8,1.5,3.1,3.3,3.1c0.1,0,0.3,0,0.4,0
		c1.9-0.2,3.2-1.8,3.2-3.6C14.3,20.6,14.3,20.5,14.3,20.3z M7.2,18.3C7.1,18.2,7,18.1,7,18c-1.2-2.4-0.8-6.1,1.6-7.8
		c0,0,0.3-0.2,0.5-0.3c0.3-0.1,0.4-0.7,0.3-1c0-0.1,0.1-0.2,0.2-0.2h0c0.1,0,0.2,0.1,0.2,0.2c0,0.3,0.3,0.8,0.6,0.8
		c0.3,0.1,0.6,0.2,0.8,0.5c0,0,0.1,0.1,0.1,0.1c0.3,0.3,0.6,0.5,0.8,0.8c0.3,0.4,0.5,0.8,0.8,1.3c0.7,1.5,0.8,3.2,0.6,4.8
		c-0.1,0.4-0.2,0.8-0.3,1.1c-0.1,0.3-0.2,0.5-0.3,0.8c-0.1,0.1-0.2,0.2-0.3,0.2h-0.1c-0.1,0-0.1,0-0.2,0c-0.2-0.1-0.3-0.3-0.2-0.6
		c0.2-0.5,0.4-1,0.5-1.6c0.3-1.5,0.1-3-0.5-4.3c-0.3-0.7-0.8-1.4-1.3-2c-0.3-0.2-0.5-0.4-0.8-0.4c-0.5,0-1.1,0.5-1.4,0.9
		c-1.2,1.4-1.6,3.4-1.1,5.1c0.1,0.4,0.3,0.8,0.5,1.2c0.3,0.5,0.6,0.9,1,1.4c0.2,0.2,0.2,0.4,0,0.6c-0.1,0.1-0.2,0.1-0.3,0.1
		c-0.1,0-0.2,0-0.3-0.1c-0.1,0-0.1-0.1-0.2-0.2C7.8,19.2,7.4,18.8,7.2,18.3z"/>
</g>
</svg>
