<?xml version="1.0" encoding="utf-8"?>
<!-- Generator: Adobe Illustrator 25.0.1, SVG Export Plug-In . SVG Version: 6.00 Build 0)  -->
<svg version="1.1" id="圖層_1" xmlns="http://www.w3.org/2000/svg" xmlns:xlink="http://www.w3.org/1999/xlink" x="0px" y="0px"
	 viewBox="0 0 30 30" style="enable-background:new 0 0 30 30;" xml:space="preserve">
<style type="text/css">
	.st0{fill:#231F20;}
</style>
<g>
	<path class="st0" d="M15,17.8c-1.4,0-2.5,1.1-2.5,2.5s1.1,2.5,2.5,2.5s2.5-1.1,2.5-2.5S16.4,17.8,15,17.8z M15,21.8
		c-0.8,0-1.5-0.7-1.5-1.5s0.7-1.5,1.5-1.5s1.5,0.7,1.5,1.5S15.8,21.8,15,21.8z"/>
	<path class="st0" d="M15,14.8c-2.5,0-4.7,1.7-5.3,4c-0.1,0.3,0.1,0.5,0.4,0.6c0.3,0.1,0.5-0.1,0.6-0.4c0.5-1.9,2.3-3.3,4.3-3.3
		s3.8,1.4,4.3,3.3c0.1,0.2,0.3,0.4,0.5,0.4c0,0,0.1,0,0.1,0c0.3-0.1,0.4-0.3,0.4-0.6C19.6,16.4,17.5,14.8,15,14.8z"/>
	<path class="st0" d="M15,10.8c-3.3,0-6.2,1.8-7.6,4.8c-0.1,0.2,0,0.5,0.2,0.7c0.1,0,0.1,0.1,0.2,0.1c0.2,0,0.4-0.1,0.4-0.3
		c1.3-2.6,3.9-4.2,6.7-4.2c2.9,0,5.5,1.6,6.7,4.2c0.1,0.2,0.4,0.3,0.7,0.2c0.2-0.1,0.3-0.4,0.2-0.7C21.2,12.6,18.2,10.8,15,10.8z"/>
	<path class="st0" d="M25.1,12.8c-2.2-3.5-6-5.6-10.1-5.6c-4.1,0-7.9,2.1-10.1,5.5C4.7,13,4.8,13.3,5,13.5c0.2,0.1,0.5,0.1,0.7-0.2
		c2-3.2,5.5-5.1,9.3-5.1c3.8,0,7.3,1.9,9.3,5.1c0.1,0.2,0.3,0.2,0.4,0.2c0.1,0,0.2,0,0.3-0.1C25.2,13.4,25.3,13.1,25.1,12.8z"/>
</g>
</svg>
